<mxfile host="Electron" modified="2024-07-15T03:23:48.817Z" agent="Mozilla/5.0 (Windows NT 10.0; Win64; x64) AppleWebKit/537.36 (KHTML, like Gecko) draw.io/22.0.2 Chrome/114.0.5735.289 Electron/25.8.4 Safari/537.36" etag="HahJ5CqQJ3LEd1adXaUF" version="22.0.2" type="device">
  <diagram name="第 1 页" id="XWjhuGjZIDZvUrzgFzQ1">
    <mxGraphModel dx="1656" dy="818" grid="1" gridSize="10" guides="1" tooltips="1" connect="1" arrows="1" fold="1" page="1" pageScale="1" pageWidth="827" pageHeight="1169" math="0" shadow="0">
      <root>
        <mxCell id="0" />
        <mxCell id="1" parent="0" />
        <mxCell id="inFILSlNQmWe0_eNHfYl-1" value="" style="endArrow=classic;html=1;rounded=0;exitX=1;exitY=0.5;exitDx=0;exitDy=0;entryX=0;entryY=0.525;entryDx=0;entryDy=0;entryPerimeter=0;" parent="1" source="inFILSlNQmWe0_eNHfYl-20" target="inFILSlNQmWe0_eNHfYl-5" edge="1">
          <mxGeometry width="50" height="50" relative="1" as="geometry">
            <mxPoint x="630.03" y="670" as="sourcePoint" />
            <mxPoint x="830" y="730" as="targetPoint" />
          </mxGeometry>
        </mxCell>
        <mxCell id="inFILSlNQmWe0_eNHfYl-2" value="" style="endArrow=classic;html=1;rounded=0;exitX=1;exitY=0.5;exitDx=0;exitDy=0;entryX=0;entryY=0.55;entryDx=0;entryDy=0;entryPerimeter=0;" parent="1" source="inFILSlNQmWe0_eNHfYl-22" target="inFILSlNQmWe0_eNHfYl-5" edge="1">
          <mxGeometry width="50" height="50" relative="1" as="geometry">
            <mxPoint x="849.97" y="830" as="sourcePoint" />
            <mxPoint x="830" y="740" as="targetPoint" />
          </mxGeometry>
        </mxCell>
        <mxCell id="inFILSlNQmWe0_eNHfYl-5" value="&lt;div style=&quot;border-color: var(--border-color);&quot;&gt;&lt;u style=&quot;border-color: var(--border-color);&quot;&gt;&lt;font face=&quot;新宋体&quot;&gt;用户ID&lt;/font&gt;&lt;/u&gt;&lt;/div&gt;&lt;div style=&quot;border-color: var(--border-color);&quot;&gt;&lt;font face=&quot;新宋体&quot;&gt;用户名&lt;/font&gt;&lt;/div&gt;&lt;div style=&quot;border-color: var(--border-color);&quot;&gt;&lt;font face=&quot;新宋体&quot;&gt;密码&lt;/font&gt;&lt;/div&gt;&lt;div style=&quot;border-color: var(--border-color);&quot;&gt;&lt;font face=&quot;新宋体&quot;&gt;手机号码&lt;/font&gt;&lt;/div&gt;&lt;div style=&quot;border-color: var(--border-color);&quot;&gt;&lt;font face=&quot;新宋体&quot;&gt;注册日期&lt;/font&gt;&lt;/div&gt;&lt;div style=&quot;border-color: var(--border-color);&quot;&gt;&lt;font face=&quot;新宋体&quot;&gt;上次登录时间&lt;/font&gt;&lt;/div&gt;&lt;div style=&quot;border-color: var(--border-color);&quot;&gt;&lt;font face=&quot;新宋体&quot;&gt;用户角色&lt;/font&gt;&lt;/div&gt;&lt;div style=&quot;border-color: var(--border-color);&quot;&gt;&lt;span style=&quot;border-color: var(--border-color); background-color: initial;&quot;&gt;&lt;font face=&quot;新宋体&quot;&gt;用户状态&lt;/font&gt;&lt;/span&gt;&lt;/div&gt;&lt;div style=&quot;border-color: var(--border-color);&quot;&gt;&lt;span style=&quot;border-color: var(--border-color); background-color: initial;&quot;&gt;&lt;font face=&quot;新宋体&quot;&gt;头像链接&lt;/font&gt;&lt;/span&gt;&lt;/div&gt;&lt;div style=&quot;border-color: var(--border-color);&quot;&gt;&lt;span style=&quot;border-color: var(--border-color); background-color: initial;&quot;&gt;&lt;font face=&quot;新宋体&quot;&gt;个人简介&lt;/font&gt;&lt;/span&gt;&lt;/div&gt;&lt;div style=&quot;border-color: var(--border-color);&quot;&gt;&lt;span style=&quot;border-color: var(--border-color); background-color: initial;&quot;&gt;&lt;font face=&quot;新宋体&quot;&gt;性别&lt;/font&gt;&lt;/span&gt;&lt;/div&gt;&lt;div style=&quot;border-color: var(--border-color);&quot;&gt;&lt;span style=&quot;border-color: var(--border-color); background-color: initial;&quot;&gt;&lt;font face=&quot;新宋体&quot;&gt;出生日期&lt;/font&gt;&lt;/span&gt;&lt;/div&gt;&lt;div style=&quot;border-color: var(--border-color);&quot;&gt;&lt;span style=&quot;border-color: var(--border-color); background-color: initial;&quot;&gt;&lt;font face=&quot;新宋体&quot;&gt;经验点数&lt;/font&gt;&lt;/span&gt;&lt;/div&gt;&lt;div style=&quot;border-color: var(--border-color);&quot;&gt;&lt;span style=&quot;border-color: var(--border-color); background-color: initial;&quot;&gt;&lt;font face=&quot;新宋体&quot;&gt;关注数&lt;/font&gt;&lt;/span&gt;&lt;/div&gt;&lt;div style=&quot;border-color: var(--border-color);&quot;&gt;&lt;span style=&quot;border-color: var(--border-color); background-color: initial;&quot;&gt;&lt;font face=&quot;新宋体&quot;&gt;被关注数&lt;/font&gt;&lt;/span&gt;&lt;/div&gt;&lt;div style=&quot;border-color: var(--border-color);&quot;&gt;&lt;font face=&quot;新宋体&quot;&gt;&lt;span style=&quot;border-color: var(--border-color); background-color: initial;&quot;&gt;收&lt;/span&gt;&lt;span style=&quot;border-color: var(--border-color); background-color: initial;&quot;&gt;藏数&lt;/span&gt;&lt;/font&gt;&lt;/div&gt;&lt;div style=&quot;border-color: var(--border-color);&quot;&gt;&lt;span style=&quot;border-color: var(--border-color); background-color: initial;&quot;&gt;&lt;font face=&quot;新宋体&quot;&gt;被收藏数&lt;/font&gt;&lt;/span&gt;&lt;/div&gt;&lt;div style=&quot;border-color: var(--border-color);&quot;&gt;&lt;span style=&quot;border-color: var(--border-color); background-color: initial;&quot;&gt;&lt;font face=&quot;新宋体&quot;&gt;点赞数&lt;/font&gt;&lt;/span&gt;&lt;/div&gt;&lt;div style=&quot;border-color: var(--border-color);&quot;&gt;&lt;span style=&quot;border-color: var(--border-color); background-color: initial;&quot;&gt;&lt;font face=&quot;新宋体&quot;&gt;被点赞数&lt;/font&gt;&lt;/span&gt;&lt;/div&gt;&lt;div style=&quot;border-color: var(--border-color);&quot;&gt;&lt;span style=&quot;border-color: var(--border-color); background-color: initial;&quot;&gt;&lt;font face=&quot;新宋体&quot;&gt;留言数&lt;/font&gt;&lt;/span&gt;&lt;/div&gt;" style="whiteSpace=wrap;html=1;align=center;" parent="1" vertex="1">
          <mxGeometry x="850" y="560" width="160" height="320" as="geometry" />
        </mxCell>
        <mxCell id="inFILSlNQmWe0_eNHfYl-6" value="&lt;b&gt;&lt;font face=&quot;新宋体&quot;&gt;用户&lt;/font&gt;&lt;/b&gt;" style="whiteSpace=wrap;html=1;align=center;fillColor=#647687;fontColor=#ffffff;strokeColor=#314354;" parent="1" vertex="1">
          <mxGeometry x="850" y="530" width="160" height="30" as="geometry" />
        </mxCell>
        <mxCell id="inFILSlNQmWe0_eNHfYl-19" value="&lt;b&gt;&lt;font face=&quot;新宋体&quot;&gt;新闻&lt;/font&gt;&lt;/b&gt;" style="whiteSpace=wrap;html=1;align=center;fillColor=#647687;fontColor=#ffffff;strokeColor=#314354;" parent="1" vertex="1">
          <mxGeometry x="429.97" y="410" width="160" height="30" as="geometry" />
        </mxCell>
        <mxCell id="inFILSlNQmWe0_eNHfYl-20" value="&lt;div style=&quot;border-color: var(--border-color);&quot;&gt;&lt;u style=&quot;border-color: var(--border-color);&quot;&gt;&lt;font face=&quot;新宋体&quot;&gt;新闻ID&lt;/font&gt;&lt;/u&gt;&lt;/div&gt;&lt;div style=&quot;border-color: var(--border-color);&quot;&gt;&lt;font face=&quot;新宋体&quot;&gt;管理员ID&lt;/font&gt;&lt;/div&gt;&lt;div style=&quot;border-color: var(--border-color);&quot;&gt;&lt;font face=&quot;新宋体&quot;&gt;新闻标签ID&lt;/font&gt;&lt;/div&gt;&lt;div style=&quot;border-color: var(--border-color);&quot;&gt;&lt;div style=&quot;border-color: var(--border-color);&quot;&gt;&lt;font face=&quot;新宋体&quot;&gt;标题&lt;/font&gt;&lt;/div&gt;&lt;div style=&quot;border-color: var(--border-color);&quot;&gt;&lt;font face=&quot;新宋体&quot;&gt;新闻摘要&lt;/font&gt;&lt;/div&gt;&lt;div style=&quot;border-color: var(--border-color);&quot;&gt;&lt;font face=&quot;新宋体&quot;&gt;内容&lt;/font&gt;&lt;/div&gt;&lt;div style=&quot;border-color: var(--border-color);&quot;&gt;&lt;font face=&quot;新宋体&quot;&gt;创建时间&lt;/font&gt;&lt;/div&gt;&lt;div style=&quot;border-color: var(--border-color);&quot;&gt;&lt;font face=&quot;新宋体&quot;&gt;更新时间&lt;/font&gt;&lt;/div&gt;&lt;div style=&quot;border-color: var(--border-color);&quot;&gt;&lt;font face=&quot;新宋体&quot;&gt;封面图片链接&lt;/font&gt;&lt;/div&gt;&lt;div style=&quot;border-color: var(--border-color);&quot;&gt;&lt;font face=&quot;新宋体&quot;&gt;是否置顶&lt;/font&gt;&lt;/div&gt;&lt;div style=&quot;border-color: var(--border-color);&quot;&gt;&lt;font face=&quot;新宋体&quot;&gt;点赞数&lt;/font&gt;&lt;/div&gt;&lt;div style=&quot;border-color: var(--border-color);&quot;&gt;&lt;font face=&quot;新宋体&quot;&gt;点&lt;/font&gt;&lt;span style=&quot;font-family: 新宋体; background-color: initial;&quot;&gt;踩数&lt;/span&gt;&lt;/div&gt;&lt;div style=&quot;border-color: var(--border-color);&quot;&gt;&lt;span style=&quot;font-family: 新宋体; background-color: initial;&quot;&gt;收藏数&lt;/span&gt;&lt;/div&gt;&lt;div style=&quot;border-color: var(--border-color);&quot;&gt;&lt;span style=&quot;font-family: 新宋体; background-color: initial;&quot;&gt;评论数&lt;/span&gt;&lt;/div&gt;&lt;/div&gt;" style="whiteSpace=wrap;html=1;align=center;" parent="1" vertex="1">
          <mxGeometry x="429.97" y="440" width="160" height="210" as="geometry" />
        </mxCell>
        <mxCell id="inFILSlNQmWe0_eNHfYl-21" value="&lt;b&gt;&lt;font face=&quot;新宋体&quot;&gt;新闻评论&lt;/font&gt;&lt;/b&gt;" style="whiteSpace=wrap;html=1;align=center;fillColor=#647687;fontColor=#ffffff;strokeColor=#314354;" parent="1" vertex="1">
          <mxGeometry x="429.97" y="790" width="160" height="30" as="geometry" />
        </mxCell>
        <mxCell id="inFILSlNQmWe0_eNHfYl-22" value="&lt;div style=&quot;border-color: var(--border-color);&quot;&gt;&lt;u style=&quot;border-color: var(--border-color);&quot;&gt;&lt;font face=&quot;新宋体&quot;&gt;新闻评论ID&lt;/font&gt;&lt;/u&gt;&lt;/div&gt;&lt;div style=&quot;border-color: var(--border-color);&quot;&gt;&lt;font face=&quot;新宋体&quot;&gt;新闻ID&lt;/font&gt;&lt;/div&gt;&lt;div style=&quot;border-color: var(--border-color);&quot;&gt;&lt;div style=&quot;border-color: var(--border-color);&quot;&gt;&lt;span style=&quot;background-color: initial; font-family: 新宋体;&quot;&gt;用户ID&lt;/span&gt;&lt;br&gt;&lt;/div&gt;&lt;div style=&quot;border-color: var(--border-color);&quot;&gt;&lt;font face=&quot;新宋体&quot;&gt;父评论ID&lt;/font&gt;&lt;/div&gt;&lt;div style=&quot;border-color: var(--border-color);&quot;&gt;&lt;font face=&quot;新宋体&quot;&gt;评论内容&lt;/font&gt;&lt;/div&gt;&lt;div style=&quot;border-color: var(--border-color);&quot;&gt;&lt;font face=&quot;新宋体&quot;&gt;评论时间&lt;/font&gt;&lt;/div&gt;&lt;div style=&quot;border-color: var(--border-color);&quot;&gt;&lt;font face=&quot;新宋体&quot;&gt;点赞数&lt;/font&gt;&lt;/div&gt;&lt;div style=&quot;border-color: var(--border-color);&quot;&gt;&lt;font face=&quot;新宋体&quot;&gt;点踩数&lt;/font&gt;&lt;/div&gt;&lt;/div&gt;" style="whiteSpace=wrap;html=1;align=center;" parent="1" vertex="1">
          <mxGeometry x="429.97" y="820" width="160" height="120" as="geometry" />
        </mxCell>
        <mxCell id="inFILSlNQmWe0_eNHfYl-26" value="&lt;b&gt;&lt;font face=&quot;新宋体&quot;&gt;新闻评论举报&lt;/font&gt;&lt;/b&gt;" style="whiteSpace=wrap;html=1;align=center;fillColor=#647687;fontColor=#ffffff;strokeColor=#314354;" parent="1" vertex="1">
          <mxGeometry x="430" y="1080" width="160" height="30" as="geometry" />
        </mxCell>
        <mxCell id="inFILSlNQmWe0_eNHfYl-27" value="&lt;div style=&quot;border-color: var(--border-color);&quot;&gt;&lt;u style=&quot;border-color: var(--border-color);&quot;&gt;&lt;font face=&quot;新宋体&quot;&gt;新闻评论举报ID&lt;/font&gt;&lt;/u&gt;&lt;/div&gt;&lt;div style=&quot;border-color: var(--border-color);&quot;&gt;&lt;div style=&quot;border-color: var(--border-color);&quot;&gt;&lt;font face=&quot;新宋体&quot;&gt;举报者ID&lt;/font&gt;&lt;/div&gt;&lt;div style=&quot;border-color: var(--border-color);&quot;&gt;&lt;font face=&quot;新宋体&quot;&gt;被举报者ID&lt;/font&gt;&lt;/div&gt;&lt;div style=&quot;border-color: var(--border-color);&quot;&gt;&lt;font face=&quot;新宋体&quot;&gt;被举报评论所属新闻ID&lt;/font&gt;&lt;/div&gt;&lt;div style=&quot;border-color: var(--border-color);&quot;&gt;&lt;font face=&quot;新宋体&quot;&gt;被举报评论ID&lt;/font&gt;&lt;/div&gt;&lt;div style=&quot;border-color: var(--border-color);&quot;&gt;&lt;font face=&quot;新宋体&quot;&gt;举报原因&lt;/font&gt;&lt;/div&gt;&lt;div style=&quot;border-color: var(--border-color);&quot;&gt;&lt;font face=&quot;新宋体&quot;&gt;举报时间&lt;/font&gt;&lt;/div&gt;&lt;div style=&quot;border-color: var(--border-color);&quot;&gt;&lt;font face=&quot;新宋体&quot;&gt;处理状态&lt;/font&gt;&lt;/div&gt;&lt;/div&gt;" style="whiteSpace=wrap;html=1;align=center;" parent="1" vertex="1">
          <mxGeometry x="430" y="1110" width="160" height="130" as="geometry" />
        </mxCell>
        <mxCell id="inFILSlNQmWe0_eNHfYl-28" value="&lt;b&gt;&lt;font face=&quot;新宋体&quot;&gt;新闻标签&lt;/font&gt;&lt;/b&gt;" style="whiteSpace=wrap;html=1;align=center;fillColor=#647687;fontColor=#ffffff;strokeColor=#314354;" parent="1" vertex="1">
          <mxGeometry x="430" y="200" width="160" height="30" as="geometry" />
        </mxCell>
        <mxCell id="inFILSlNQmWe0_eNHfYl-29" value="&lt;div style=&quot;border-color: var(--border-color);&quot;&gt;&lt;u style=&quot;border-color: var(--border-color);&quot;&gt;&lt;font face=&quot;新宋体&quot;&gt;新闻标签ID&lt;/font&gt;&lt;/u&gt;&lt;/div&gt;&lt;div style=&quot;border-color: var(--border-color);&quot;&gt;&lt;font face=&quot;新宋体&quot;&gt;新闻标签&lt;/font&gt;&lt;/div&gt;" style="whiteSpace=wrap;html=1;align=center;" parent="1" vertex="1">
          <mxGeometry x="430" y="230" width="160" height="40" as="geometry" />
        </mxCell>
        <mxCell id="inFILSlNQmWe0_eNHfYl-47" style="edgeStyle=orthogonalEdgeStyle;rounded=0;orthogonalLoop=1;jettySize=auto;html=1;exitX=0.5;exitY=0;exitDx=0;exitDy=0;entryX=0.5;entryY=1;entryDx=0;entryDy=0;" parent="1" source="inFILSlNQmWe0_eNHfYl-48" target="inFILSlNQmWe0_eNHfYl-20" edge="1">
          <mxGeometry relative="1" as="geometry" />
        </mxCell>
        <mxCell id="inFILSlNQmWe0_eNHfYl-48" value="&lt;font face=&quot;新宋体&quot;&gt;拥有&lt;/font&gt;" style="shape=rhombus;perimeter=rhombusPerimeter;whiteSpace=wrap;html=1;align=center;" parent="1" vertex="1">
          <mxGeometry x="449.97" y="690" width="120" height="60" as="geometry" />
        </mxCell>
        <mxCell id="inFILSlNQmWe0_eNHfYl-70" style="edgeStyle=orthogonalEdgeStyle;rounded=0;orthogonalLoop=1;jettySize=auto;html=1;exitX=0.5;exitY=0;exitDx=0;exitDy=0;entryX=0.5;entryY=1;entryDx=0;entryDy=0;" parent="1" source="inFILSlNQmWe0_eNHfYl-71" target="inFILSlNQmWe0_eNHfYl-22" edge="1">
          <mxGeometry relative="1" as="geometry" />
        </mxCell>
        <mxCell id="inFILSlNQmWe0_eNHfYl-71" value="&lt;font face=&quot;新宋体&quot;&gt;拥有&lt;br&gt;&lt;/font&gt;" style="shape=rhombus;perimeter=rhombusPerimeter;whiteSpace=wrap;html=1;align=center;" parent="1" vertex="1">
          <mxGeometry x="450" y="980" width="120" height="60" as="geometry" />
        </mxCell>
        <mxCell id="inFILSlNQmWe0_eNHfYl-72" value="&lt;font face=&quot;新宋体&quot;&gt;拥有&lt;br&gt;&lt;/font&gt;" style="shape=rhombus;perimeter=rhombusPerimeter;whiteSpace=wrap;html=1;align=center;" parent="1" vertex="1">
          <mxGeometry x="270" y="1145" width="120" height="60" as="geometry" />
        </mxCell>
        <mxCell id="inFILSlNQmWe0_eNHfYl-73" value="&lt;font face=&quot;新宋体&quot;&gt;拥有&lt;/font&gt;" style="shape=rhombus;perimeter=rhombusPerimeter;whiteSpace=wrap;html=1;align=center;" parent="1" vertex="1">
          <mxGeometry x="449.97" y="310" width="120" height="60" as="geometry" />
        </mxCell>
        <mxCell id="inFILSlNQmWe0_eNHfYl-74" value="" style="endArrow=none;html=1;rounded=0;entryX=0.5;entryY=1;entryDx=0;entryDy=0;exitX=0.5;exitY=0;exitDx=0;exitDy=0;" parent="1" source="inFILSlNQmWe0_eNHfYl-73" target="inFILSlNQmWe0_eNHfYl-29" edge="1">
          <mxGeometry width="50" height="50" relative="1" as="geometry">
            <mxPoint x="390" y="350" as="sourcePoint" />
            <mxPoint x="440" y="300" as="targetPoint" />
          </mxGeometry>
        </mxCell>
        <mxCell id="inFILSlNQmWe0_eNHfYl-75" value="&lt;font face=&quot;新宋体&quot;&gt;点赞&lt;/font&gt;" style="shape=rhombus;perimeter=rhombusPerimeter;whiteSpace=wrap;html=1;align=center;" parent="1" vertex="1">
          <mxGeometry x="150" y="370" width="120" height="60" as="geometry" />
        </mxCell>
        <mxCell id="inFILSlNQmWe0_eNHfYl-76" value="&lt;div style=&quot;border-color: var(--border-color);&quot;&gt;&lt;span style=&quot;font-family: 新宋体; background-color: initial;&quot;&gt;点赞时间&lt;/span&gt;&lt;br&gt;&lt;/div&gt;" style="whiteSpace=wrap;html=1;align=center;" parent="1" vertex="1">
          <mxGeometry x="150" y="450" width="120" height="30" as="geometry" />
        </mxCell>
        <mxCell id="inFILSlNQmWe0_eNHfYl-77" value="" style="endArrow=none;dashed=1;html=1;rounded=0;entryX=0.5;entryY=1;entryDx=0;entryDy=0;exitX=0.5;exitY=0;exitDx=0;exitDy=0;" parent="1" source="inFILSlNQmWe0_eNHfYl-76" target="inFILSlNQmWe0_eNHfYl-75" edge="1">
          <mxGeometry width="50" height="50" relative="1" as="geometry">
            <mxPoint x="70" y="480" as="sourcePoint" />
            <mxPoint x="210" y="440" as="targetPoint" />
          </mxGeometry>
        </mxCell>
        <mxCell id="inFILSlNQmWe0_eNHfYl-78" value="&lt;font face=&quot;新宋体&quot;&gt;点踩&lt;/font&gt;" style="shape=rhombus;perimeter=rhombusPerimeter;whiteSpace=wrap;html=1;align=center;" parent="1" vertex="1">
          <mxGeometry x="150" y="510" width="120" height="60" as="geometry" />
        </mxCell>
        <mxCell id="inFILSlNQmWe0_eNHfYl-79" value="&lt;div style=&quot;border-color: var(--border-color);&quot;&gt;&lt;span style=&quot;font-family: 新宋体; background-color: initial;&quot;&gt;点踩时间&lt;/span&gt;&lt;br&gt;&lt;/div&gt;" style="whiteSpace=wrap;html=1;align=center;" parent="1" vertex="1">
          <mxGeometry x="150" y="590" width="120" height="30" as="geometry" />
        </mxCell>
        <mxCell id="inFILSlNQmWe0_eNHfYl-80" value="" style="endArrow=none;dashed=1;html=1;rounded=0;entryX=0.5;entryY=1;entryDx=0;entryDy=0;exitX=0.5;exitY=0;exitDx=0;exitDy=0;" parent="1" source="inFILSlNQmWe0_eNHfYl-79" target="inFILSlNQmWe0_eNHfYl-78" edge="1">
          <mxGeometry width="50" height="50" relative="1" as="geometry">
            <mxPoint x="70" y="620" as="sourcePoint" />
            <mxPoint x="210" y="580" as="targetPoint" />
          </mxGeometry>
        </mxCell>
        <mxCell id="inFILSlNQmWe0_eNHfYl-81" value="&lt;font face=&quot;新宋体&quot;&gt;收藏&lt;/font&gt;" style="shape=rhombus;perimeter=rhombusPerimeter;whiteSpace=wrap;html=1;align=center;" parent="1" vertex="1">
          <mxGeometry x="150" y="650" width="120" height="60" as="geometry" />
        </mxCell>
        <mxCell id="inFILSlNQmWe0_eNHfYl-82" value="&lt;div style=&quot;border-color: var(--border-color);&quot;&gt;&lt;span style=&quot;font-family: 新宋体; background-color: initial;&quot;&gt;收藏时间&lt;/span&gt;&lt;br&gt;&lt;/div&gt;" style="whiteSpace=wrap;html=1;align=center;" parent="1" vertex="1">
          <mxGeometry x="150" y="730" width="120" height="30" as="geometry" />
        </mxCell>
        <mxCell id="inFILSlNQmWe0_eNHfYl-83" value="" style="endArrow=none;dashed=1;html=1;rounded=0;entryX=0.5;entryY=1;entryDx=0;entryDy=0;exitX=0.5;exitY=0;exitDx=0;exitDy=0;" parent="1" source="inFILSlNQmWe0_eNHfYl-82" target="inFILSlNQmWe0_eNHfYl-81" edge="1">
          <mxGeometry width="50" height="50" relative="1" as="geometry">
            <mxPoint x="70" y="760" as="sourcePoint" />
            <mxPoint x="210" y="720" as="targetPoint" />
          </mxGeometry>
        </mxCell>
        <mxCell id="inFILSlNQmWe0_eNHfYl-84" value="&lt;font face=&quot;新宋体&quot;&gt;点赞&lt;/font&gt;" style="shape=rhombus;perimeter=rhombusPerimeter;whiteSpace=wrap;html=1;align=center;" parent="1" vertex="1">
          <mxGeometry x="150" y="790" width="120" height="60" as="geometry" />
        </mxCell>
        <mxCell id="inFILSlNQmWe0_eNHfYl-85" value="&lt;div style=&quot;border-color: var(--border-color);&quot;&gt;&lt;span style=&quot;font-family: 新宋体; background-color: initial;&quot;&gt;点赞时间&lt;/span&gt;&lt;br&gt;&lt;/div&gt;" style="whiteSpace=wrap;html=1;align=center;" parent="1" vertex="1">
          <mxGeometry x="150" y="870" width="120" height="30" as="geometry" />
        </mxCell>
        <mxCell id="inFILSlNQmWe0_eNHfYl-86" value="" style="endArrow=none;dashed=1;html=1;rounded=0;entryX=0.5;entryY=1;entryDx=0;entryDy=0;exitX=0.5;exitY=0;exitDx=0;exitDy=0;" parent="1" source="inFILSlNQmWe0_eNHfYl-85" target="inFILSlNQmWe0_eNHfYl-84" edge="1">
          <mxGeometry width="50" height="50" relative="1" as="geometry">
            <mxPoint x="70" y="900" as="sourcePoint" />
            <mxPoint x="210" y="860" as="targetPoint" />
          </mxGeometry>
        </mxCell>
        <mxCell id="inFILSlNQmWe0_eNHfYl-87" value="&lt;font face=&quot;新宋体&quot;&gt;点踩&lt;/font&gt;" style="shape=rhombus;perimeter=rhombusPerimeter;whiteSpace=wrap;html=1;align=center;" parent="1" vertex="1">
          <mxGeometry x="150" y="930" width="120" height="60" as="geometry" />
        </mxCell>
        <mxCell id="inFILSlNQmWe0_eNHfYl-88" value="&lt;div style=&quot;border-color: var(--border-color);&quot;&gt;&lt;span style=&quot;font-family: 新宋体; background-color: initial;&quot;&gt;点踩时间&lt;/span&gt;&lt;br&gt;&lt;/div&gt;" style="whiteSpace=wrap;html=1;align=center;" parent="1" vertex="1">
          <mxGeometry x="150" y="1010" width="120" height="30" as="geometry" />
        </mxCell>
        <mxCell id="inFILSlNQmWe0_eNHfYl-89" value="" style="endArrow=none;dashed=1;html=1;rounded=0;entryX=0.5;entryY=1;entryDx=0;entryDy=0;exitX=0.5;exitY=0;exitDx=0;exitDy=0;" parent="1" source="inFILSlNQmWe0_eNHfYl-88" target="inFILSlNQmWe0_eNHfYl-87" edge="1">
          <mxGeometry width="50" height="50" relative="1" as="geometry">
            <mxPoint x="70" y="1040" as="sourcePoint" />
            <mxPoint x="210" y="1000" as="targetPoint" />
          </mxGeometry>
        </mxCell>
        <mxCell id="inFILSlNQmWe0_eNHfYl-95" style="edgeStyle=orthogonalEdgeStyle;rounded=0;orthogonalLoop=1;jettySize=auto;html=1;exitX=0;exitY=0.75;exitDx=0;exitDy=0;entryX=1;entryY=0.75;entryDx=0;entryDy=0;" parent="1" source="inFILSlNQmWe0_eNHfYl-22" target="inFILSlNQmWe0_eNHfYl-22" edge="1">
          <mxGeometry relative="1" as="geometry">
            <Array as="points">
              <mxPoint x="400" y="910" />
              <mxPoint x="400" y="960" />
              <mxPoint x="620" y="960" />
              <mxPoint x="620" y="910" />
            </Array>
          </mxGeometry>
        </mxCell>
        <mxCell id="inFILSlNQmWe0_eNHfYl-100" value="&lt;font face=&quot;新宋体&quot;&gt;发布&lt;/font&gt;" style="shape=rhombus;perimeter=rhombusPerimeter;whiteSpace=wrap;html=1;align=center;" parent="1" vertex="1">
          <mxGeometry x="660" y="610" width="120" height="60" as="geometry" />
        </mxCell>
        <mxCell id="inFILSlNQmWe0_eNHfYl-101" value="&lt;font face=&quot;新宋体&quot;&gt;发布&lt;/font&gt;" style="shape=rhombus;perimeter=rhombusPerimeter;whiteSpace=wrap;html=1;align=center;" parent="1" vertex="1">
          <mxGeometry x="660" y="780" width="120" height="60" as="geometry" />
        </mxCell>
        <mxCell id="inFILSlNQmWe0_eNHfYl-102" value="&lt;font face=&quot;新宋体&quot;&gt;举报&lt;/font&gt;" style="shape=rhombus;perimeter=rhombusPerimeter;whiteSpace=wrap;html=1;align=center;" parent="1" vertex="1">
          <mxGeometry x="660" y="930" width="120" height="60" as="geometry" />
        </mxCell>
        <mxCell id="inFILSlNQmWe0_eNHfYl-108" value="" style="endArrow=none;html=1;rounded=0;exitX=0;exitY=0.5;exitDx=0;exitDy=0;entryX=0.75;entryY=0;entryDx=0;entryDy=0;" parent="1" source="inFILSlNQmWe0_eNHfYl-87" target="inFILSlNQmWe0_eNHfYl-6" edge="1">
          <mxGeometry width="50" height="50" relative="1" as="geometry">
            <mxPoint x="800" y="30" as="sourcePoint" />
            <mxPoint x="850" y="680" as="targetPoint" />
            <Array as="points">
              <mxPoint x="40" y="960" />
              <mxPoint x="40" y="40" />
              <mxPoint x="970" y="40" />
            </Array>
          </mxGeometry>
        </mxCell>
        <mxCell id="inFILSlNQmWe0_eNHfYl-109" value="" style="endArrow=none;html=1;rounded=0;exitX=0;exitY=0.5;exitDx=0;exitDy=0;entryX=0.625;entryY=0;entryDx=0;entryDy=0;entryPerimeter=0;" parent="1" source="inFILSlNQmWe0_eNHfYl-84" target="inFILSlNQmWe0_eNHfYl-6" edge="1">
          <mxGeometry width="50" height="50" relative="1" as="geometry">
            <mxPoint x="780" y="60" as="sourcePoint" />
            <mxPoint x="950" y="470" as="targetPoint" />
            <Array as="points">
              <mxPoint x="60" y="820" />
              <mxPoint x="60" y="60" />
              <mxPoint x="950" y="60" />
            </Array>
          </mxGeometry>
        </mxCell>
        <mxCell id="inFILSlNQmWe0_eNHfYl-110" value="" style="endArrow=none;html=1;rounded=0;entryX=0.5;entryY=0;entryDx=0;entryDy=0;exitX=0;exitY=0.5;exitDx=0;exitDy=0;" parent="1" source="inFILSlNQmWe0_eNHfYl-81" target="inFILSlNQmWe0_eNHfYl-6" edge="1">
          <mxGeometry width="50" height="50" relative="1" as="geometry">
            <mxPoint x="760" y="90" as="sourcePoint" />
            <mxPoint x="840" y="700" as="targetPoint" />
            <Array as="points">
              <mxPoint x="80" y="680" />
              <mxPoint x="80" y="80" />
              <mxPoint x="930" y="80" />
            </Array>
          </mxGeometry>
        </mxCell>
        <mxCell id="inFILSlNQmWe0_eNHfYl-111" value="" style="endArrow=none;html=1;rounded=0;exitX=0;exitY=0.5;exitDx=0;exitDy=0;entryX=0.375;entryY=0;entryDx=0;entryDy=0;entryPerimeter=0;" parent="1" source="inFILSlNQmWe0_eNHfYl-78" target="inFILSlNQmWe0_eNHfYl-6" edge="1">
          <mxGeometry width="50" height="50" relative="1" as="geometry">
            <mxPoint x="740" y="120" as="sourcePoint" />
            <mxPoint x="900" y="470" as="targetPoint" />
            <Array as="points">
              <mxPoint x="100" y="540" />
              <mxPoint x="100" y="100" />
              <mxPoint x="910" y="100" />
            </Array>
          </mxGeometry>
        </mxCell>
        <mxCell id="inFILSlNQmWe0_eNHfYl-112" value="" style="endArrow=none;html=1;rounded=0;entryX=0.25;entryY=0;entryDx=0;entryDy=0;exitX=0;exitY=0.5;exitDx=0;exitDy=0;" parent="1" source="inFILSlNQmWe0_eNHfYl-75" target="inFILSlNQmWe0_eNHfYl-6" edge="1">
          <mxGeometry width="50" height="50" relative="1" as="geometry">
            <mxPoint x="720" y="150" as="sourcePoint" />
            <mxPoint x="820" y="590" as="targetPoint" />
            <Array as="points">
              <mxPoint x="120" y="400" />
              <mxPoint x="120" y="120" />
              <mxPoint x="890" y="120" />
            </Array>
          </mxGeometry>
        </mxCell>
        <mxCell id="inFILSlNQmWe0_eNHfYl-126" value="" style="endArrow=none;html=1;rounded=0;entryX=0.5;entryY=1;entryDx=0;entryDy=0;exitX=0.5;exitY=0;exitDx=0;exitDy=0;" parent="1" source="inFILSlNQmWe0_eNHfYl-21" target="inFILSlNQmWe0_eNHfYl-48" edge="1">
          <mxGeometry width="50" height="50" relative="1" as="geometry">
            <mxPoint x="380" y="800" as="sourcePoint" />
            <mxPoint x="430" y="750" as="targetPoint" />
          </mxGeometry>
        </mxCell>
        <mxCell id="inFILSlNQmWe0_eNHfYl-127" value="" style="endArrow=none;html=1;rounded=0;entryX=0.5;entryY=1;entryDx=0;entryDy=0;exitX=0.5;exitY=0;exitDx=0;exitDy=0;" parent="1" source="inFILSlNQmWe0_eNHfYl-26" target="inFILSlNQmWe0_eNHfYl-71" edge="1">
          <mxGeometry width="50" height="50" relative="1" as="geometry">
            <mxPoint x="410" y="1080" as="sourcePoint" />
            <mxPoint x="460" y="1030" as="targetPoint" />
          </mxGeometry>
        </mxCell>
        <mxCell id="inFILSlNQmWe0_eNHfYl-133" value="" style="endArrow=none;html=1;rounded=0;exitX=1;exitY=0.5;exitDx=0;exitDy=0;" parent="1" source="inFILSlNQmWe0_eNHfYl-27" target="inFILSlNQmWe0_eNHfYl-102" edge="1">
          <mxGeometry width="50" height="50" relative="1" as="geometry">
            <mxPoint x="650" y="1060" as="sourcePoint" />
            <mxPoint x="650" y="1010" as="targetPoint" />
          </mxGeometry>
        </mxCell>
        <mxCell id="inFILSlNQmWe0_eNHfYl-134" value="" style="endArrow=classic;html=1;rounded=0;exitX=0;exitY=0;exitDx=0;exitDy=0;entryX=0;entryY=0.575;entryDx=0;entryDy=0;entryPerimeter=0;" parent="1" source="inFILSlNQmWe0_eNHfYl-102" target="inFILSlNQmWe0_eNHfYl-5" edge="1">
          <mxGeometry width="50" height="50" relative="1" as="geometry">
            <mxPoint x="700" y="900" as="sourcePoint" />
            <mxPoint x="830" y="770" as="targetPoint" />
          </mxGeometry>
        </mxCell>
        <mxCell id="inFILSlNQmWe0_eNHfYl-135" value="" style="endArrow=classic;html=1;rounded=0;exitX=1;exitY=0;exitDx=0;exitDy=0;entryX=0;entryY=0.6;entryDx=0;entryDy=0;entryPerimeter=0;" parent="1" source="inFILSlNQmWe0_eNHfYl-102" target="inFILSlNQmWe0_eNHfYl-5" edge="1">
          <mxGeometry width="50" height="50" relative="1" as="geometry">
            <mxPoint x="770" y="950" as="sourcePoint" />
            <mxPoint x="840" y="770" as="targetPoint" />
          </mxGeometry>
        </mxCell>
        <mxCell id="inFILSlNQmWe0_eNHfYl-140" value="" style="endArrow=none;html=1;rounded=0;entryX=0;entryY=0.5;entryDx=0;entryDy=0;exitX=1;exitY=0.5;exitDx=0;exitDy=0;" parent="1" source="inFILSlNQmWe0_eNHfYl-72" target="inFILSlNQmWe0_eNHfYl-27" edge="1">
          <mxGeometry width="50" height="50" relative="1" as="geometry">
            <mxPoint x="340" y="1120" as="sourcePoint" />
            <mxPoint x="390" y="1070" as="targetPoint" />
          </mxGeometry>
        </mxCell>
        <mxCell id="inFILSlNQmWe0_eNHfYl-142" value="" style="endArrow=classic;html=1;rounded=0;exitX=0.5;exitY=0;exitDx=0;exitDy=0;entryX=0;entryY=1;entryDx=0;entryDy=0;" parent="1" source="inFILSlNQmWe0_eNHfYl-72" target="inFILSlNQmWe0_eNHfYl-20" edge="1">
          <mxGeometry width="50" height="50" relative="1" as="geometry">
            <mxPoint x="340" y="1070" as="sourcePoint" />
            <mxPoint x="390" y="1020" as="targetPoint" />
            <Array as="points">
              <mxPoint x="330" y="720" />
            </Array>
          </mxGeometry>
        </mxCell>
        <mxCell id="inFILSlNQmWe0_eNHfYl-144" value="" style="endArrow=none;html=1;rounded=0;exitX=1;exitY=0.5;exitDx=0;exitDy=0;entryX=0;entryY=0.381;entryDx=0;entryDy=0;entryPerimeter=0;" parent="1" source="inFILSlNQmWe0_eNHfYl-75" target="inFILSlNQmWe0_eNHfYl-20" edge="1">
          <mxGeometry width="50" height="50" relative="1" as="geometry">
            <mxPoint x="360" y="480" as="sourcePoint" />
            <mxPoint x="420" y="520" as="targetPoint" />
          </mxGeometry>
        </mxCell>
        <mxCell id="inFILSlNQmWe0_eNHfYl-145" value="" style="endArrow=none;html=1;rounded=0;exitX=1;exitY=0.5;exitDx=0;exitDy=0;entryX=0;entryY=0.476;entryDx=0;entryDy=0;entryPerimeter=0;" parent="1" source="inFILSlNQmWe0_eNHfYl-78" target="inFILSlNQmWe0_eNHfYl-20" edge="1">
          <mxGeometry width="50" height="50" relative="1" as="geometry">
            <mxPoint x="310" y="580" as="sourcePoint" />
            <mxPoint x="420" y="540" as="targetPoint" />
          </mxGeometry>
        </mxCell>
        <mxCell id="inFILSlNQmWe0_eNHfYl-146" value="" style="endArrow=none;html=1;rounded=0;exitX=1;exitY=0.5;exitDx=0;exitDy=0;entryX=0;entryY=0.571;entryDx=0;entryDy=0;entryPerimeter=0;" parent="1" source="inFILSlNQmWe0_eNHfYl-81" target="inFILSlNQmWe0_eNHfYl-20" edge="1">
          <mxGeometry width="50" height="50" relative="1" as="geometry">
            <mxPoint x="310" y="650" as="sourcePoint" />
            <mxPoint x="360" y="600" as="targetPoint" />
          </mxGeometry>
        </mxCell>
        <mxCell id="inFILSlNQmWe0_eNHfYl-147" value="" style="endArrow=none;html=1;rounded=0;exitX=1;exitY=0.5;exitDx=0;exitDy=0;entryX=0;entryY=0.5;entryDx=0;entryDy=0;" parent="1" source="inFILSlNQmWe0_eNHfYl-87" target="inFILSlNQmWe0_eNHfYl-22" edge="1">
          <mxGeometry width="50" height="50" relative="1" as="geometry">
            <mxPoint x="310" y="900" as="sourcePoint" />
            <mxPoint x="360" y="850" as="targetPoint" />
          </mxGeometry>
        </mxCell>
        <mxCell id="inFILSlNQmWe0_eNHfYl-148" value="" style="endArrow=none;html=1;rounded=0;exitX=1;exitY=0.5;exitDx=0;exitDy=0;entryX=0;entryY=0.25;entryDx=0;entryDy=0;" parent="1" source="inFILSlNQmWe0_eNHfYl-84" target="inFILSlNQmWe0_eNHfYl-22" edge="1">
          <mxGeometry width="50" height="50" relative="1" as="geometry">
            <mxPoint x="360" y="870" as="sourcePoint" />
            <mxPoint x="410" y="820" as="targetPoint" />
          </mxGeometry>
        </mxCell>
        <mxCell id="inFILSlNQmWe0_eNHfYl-154" value="&lt;font face=&quot;新宋体&quot;&gt;被举报者ID&lt;/font&gt;" style="text;html=1;strokeColor=none;fillColor=none;align=center;verticalAlign=middle;whiteSpace=wrap;rounded=0;" parent="1" vertex="1">
          <mxGeometry x="650" y="890" width="70" height="30" as="geometry" />
        </mxCell>
        <mxCell id="inFILSlNQmWe0_eNHfYl-155" value="&lt;font face=&quot;新宋体&quot;&gt;举报者ID&lt;/font&gt;" style="text;html=1;strokeColor=none;fillColor=none;align=center;verticalAlign=middle;whiteSpace=wrap;rounded=0;" parent="1" vertex="1">
          <mxGeometry x="770" y="890" width="70" height="30" as="geometry" />
        </mxCell>
        <mxCell id="inFILSlNQmWe0_eNHfYl-160" value="" style="shape=link;html=1;rounded=0;entryX=0.5;entryY=0;entryDx=0;entryDy=0;exitX=0.5;exitY=1;exitDx=0;exitDy=0;" parent="1" source="inFILSlNQmWe0_eNHfYl-73" target="inFILSlNQmWe0_eNHfYl-19" edge="1">
          <mxGeometry relative="1" as="geometry">
            <mxPoint x="540" y="390" as="sourcePoint" />
            <mxPoint x="730" y="380" as="targetPoint" />
          </mxGeometry>
        </mxCell>
        <mxCell id="inFILSlNQmWe0_eNHfYl-161" value="" style="resizable=0;html=1;whiteSpace=wrap;align=left;verticalAlign=bottom;" parent="inFILSlNQmWe0_eNHfYl-160" connectable="0" vertex="1">
          <mxGeometry x="-1" relative="1" as="geometry" />
        </mxCell>
        <mxCell id="inFILSlNQmWe0_eNHfYl-162" value="" style="resizable=0;html=1;whiteSpace=wrap;align=right;verticalAlign=bottom;" parent="inFILSlNQmWe0_eNHfYl-160" connectable="0" vertex="1">
          <mxGeometry x="1" relative="1" as="geometry" />
        </mxCell>
      </root>
    </mxGraphModel>
  </diagram>
</mxfile>
